<svg xmlns="http://www.w3.org/2000/svg" width="820" height="462">
  <text xml:space="preserve" x="73.385" y="320.353" style="font-size:218.722px;text-align:start;writing-mode:lr-tb;direction:ltr;text-anchor:start;fill:#1a1a1a;fill-opacity:.5;stroke-width:18.2268"/>
  <path d="M438.396 167.11c-2.807.811-5.365 1.623-7.673 2.434-14.597 5.115-24.14 8.67-28.631 10.666.748 0 4.18.656 10.292 1.966 2.87.561 4.96 1.37 6.27 2.431.811.624 1.215 1.716 1.215 3.275v68.492l-.186.75c-3.993 7.236-9.856 11.602-17.591 13.099h54.083c-8.359-1.747-14.222-6.083-17.59-13.007l-.189-.842zM504.385 169.801v29.754H474.63v18.433h29.754v29.754h18.433v-29.754h29.755v-18.433h-29.755v-29.754Z" style="font-weight:500;font-size:218.722px;font-family:&quot;Modern Antiqua&quot;;-inkscape-font-specification:&quot;Modern Antiqua Medium&quot;;fill:#1a1a1a;stroke-width:15.9691" transform="matrix(1.15304 0 0 1.15304 -3.178 13.773)"/>
  <path d="M278.748 108.852c8.829 1.708 15.521 6.692 20.078 14.95l.215.854v129.76l-.215.855c-4.557 8.26-11.25 13.243-20.078 14.952h61.73c-9.54-1.994-16.233-6.943-20.078-14.846l-.214-.961v-41.865h27.447l.748.322c4.272 2.92 6.408 7.013 6.408 12.281 0 1.994-.32 4.164-.96 6.514l30.862-53.506c-14.666 15.094-24.527 22.89-29.582 23.389l-1.496.107h-33.427v-81.914h48.38l1.495.108c5.055.498 14.917 8.294 29.584 23.388l-19.866-34.388Z" style="font-weight:500;font-size:218.722px;font-family:&quot;Modern Antiqua&quot;;-inkscape-font-specification:&quot;Modern Antiqua Medium&quot;;fill:#1a1a1a;stroke-width:18.227" transform="matrix(1.15304 0 0 1.15304 -3.178 13.773)"/>
  <path d="M164.756 108.852c8.828 1.708 15.521 6.692 20.078 14.95l.213.854v129.76l-.213.855c-4.557 8.26-11.25 13.243-20.078 14.952H271.02l19.865-34.389c-14.667 15.094-24.53 22.89-29.584 23.389l-1.494.107h-53.614V124.656l.215-.96c3.845-7.904 10.536-12.85 20.076-14.844z" style="font-weight:500;font-size:218.722px;font-family:&quot;Modern Antiqua&quot;;-inkscape-font-specification:&quot;Modern Antiqua Medium&quot;;fill:#1a1a1a;stroke-width:18.227" transform="matrix(1.15304 0 0 1.15304 -3.178 13.773)"/>
  <path d="M50.152 108.852 30.287 143.24c14.667-15.094 24.529-22.89 29.584-23.388l1.494-.108h30.653v134.672l-.215.855c-4.557 8.26-11.25 13.243-20.078 14.952h61.73c-9.54-1.994-16.233-6.943-20.078-14.846l-.215-.961V119.744h30.652l1.495.108c5.055.498 14.917 8.294 29.584 23.388l-19.866-34.388zM624.662 104.986c-11.748 0-21.503 3.701-29.263 11.106-7.69 7.333-11.677 16.519-11.961 27.554v2.137c.142 16.233 9.255 28.55 27.34 36.951l36.31 16.66c11.534 4.984 17.623 11.927 18.264 20.827v2.777c0 7.191-1.887 14.061-5.66 20.611-5.696 8.971-13.813 14.525-24.35 16.66-.57.143-3.062.215-7.477.215h-.427c-11.107 0-20.72-2.849-28.836-8.545-4.557-3.204-7.404-5.624-8.543-7.261l-2.03-2.35c-7.333-10.68-12.496-28.338-15.486-52.973v82.45c2.278-8.473 6.978-12.995 14.098-13.565l1.388.535L608 267.318c9.683 2.92 17.089 4.38 22.215 4.38h.853c15.593 0 28.125-4.664 37.594-13.991 9.683-8.686 15.593-20.008 17.729-33.963v-4.164c-1.068-18.725-9.611-31.648-25.631-38.768l-38.875-17.3c-13.243-5.91-19.865-13.813-19.865-23.71v-.642c0-7.547 2.279-13.455 6.836-17.726 4.414-4.13 10.074-6.196 16.98-6.196h.32c5.767.071 11.393 2.35 16.875 6.836 2.635 2.136 4.485 3.703 5.553 4.7l3.63 4.484c4.558 6.052 8.971 17.87 13.243 35.457v-61.729c-2.278 8.402-6.086 12.886-11.426 13.455l-.855-.105c-6.764-8.9-16.054-13.35-27.873-13.35z" style="font-weight:500;font-size:218.722px;font-family:&quot;Modern Antiqua&quot;;-inkscape-font-specification:&quot;Modern Antiqua Medium&quot;;fill:#1a1a1a;stroke-width:18.227" transform="matrix(1.15304 0 0 1.15304 -3.178 13.773)"/>
  <path d="M429.133 130.502c-3.368 0-6.238 1.216-8.609 3.649-2.37 2.37-3.555 5.272-3.555 8.703 0 3.43 1.185 6.36 3.555 8.794 2.37 2.37 5.24 3.555 8.61 3.555 3.368 0 6.236-1.185 8.607-3.555 2.37-2.433 3.555-5.363 3.555-8.794s-1.185-6.333-3.555-8.703c-2.37-2.433-5.24-3.649-8.608-3.649z" style="font-weight:500;font-size:218.722px;font-family:&quot;Modern Antiqua&quot;;-inkscape-font-specification:&quot;Modern Antiqua Medium&quot;;fill:#1a1a1a;stroke-width:15.9691" transform="matrix(1.15304 0 0 1.15304 -3.178 13.773)"/>
</svg>
